<mxfile host="app.diagrams.net" modified="2022-02-17T07:36:31.866Z" agent="5.0 (Windows NT 10.0; Win64; x64) AppleWebKit/537.36 (KHTML, like Gecko) Chrome/97.0.4692.99 Safari/537.36 OPR/83.0.4254.46" etag="He4qVw-pu0R2OfLIfidl" version="16.5.6" type="github" pages="5">
  <diagram id="lvRB4FPJcYYm7QUa5qJ2" name="Page-1">
    <mxGraphModel dx="1888" dy="572" grid="1" gridSize="10" guides="1" tooltips="1" connect="1" arrows="1" fold="1" page="1" pageScale="1" pageWidth="850" pageHeight="1100" math="0" shadow="0">
      <root>
        <mxCell id="0" />
        <mxCell id="1" parent="0" />
        <mxCell id="XNMidaROCYV1nubGIpJN-1" style="edgeStyle=orthogonalEdgeStyle;rounded=0;orthogonalLoop=1;jettySize=auto;html=1;endArrow=none;endFill=0;dashed=1;" parent="1" source="XNMidaROCYV1nubGIpJN-12" edge="1">
          <mxGeometry relative="1" as="geometry">
            <mxPoint x="-760" y="470" as="targetPoint" />
            <mxPoint x="-760.5" y="-30.5" as="sourcePoint" />
            <Array as="points" />
          </mxGeometry>
        </mxCell>
        <mxCell id="XNMidaROCYV1nubGIpJN-2" value="" style="shape=umlActor;verticalLabelPosition=bottom;verticalAlign=top;html=1;outlineConnect=0;" parent="1" vertex="1">
          <mxGeometry x="-770" y="160" width="20" height="40" as="geometry" />
        </mxCell>
        <mxCell id="XNMidaROCYV1nubGIpJN-3" style="edgeStyle=orthogonalEdgeStyle;rounded=0;orthogonalLoop=1;jettySize=auto;html=1;endArrow=none;endFill=0;dashed=1;startArrow=none;" parent="1" source="XNMidaROCYV1nubGIpJN-21" edge="1">
          <mxGeometry relative="1" as="geometry">
            <mxPoint x="-610" y="470" as="targetPoint" />
            <Array as="points">
              <mxPoint x="-610" y="420" />
              <mxPoint x="-610" y="420" />
            </Array>
          </mxGeometry>
        </mxCell>
        <mxCell id="XNMidaROCYV1nubGIpJN-4" value=":Home Page" style="rounded=0;whiteSpace=wrap;html=1;" parent="1" vertex="1">
          <mxGeometry x="-660" y="160" width="100" height="40" as="geometry" />
        </mxCell>
        <mxCell id="XNMidaROCYV1nubGIpJN-5" style="edgeStyle=orthogonalEdgeStyle;rounded=0;orthogonalLoop=1;jettySize=auto;html=1;endArrow=none;endFill=0;dashed=1;" parent="1" source="XNMidaROCYV1nubGIpJN-6" edge="1">
          <mxGeometry relative="1" as="geometry">
            <mxPoint x="-460" y="470" as="targetPoint" />
          </mxGeometry>
        </mxCell>
        <mxCell id="XNMidaROCYV1nubGIpJN-6" value=": Calander Reminder" style="rounded=0;whiteSpace=wrap;html=1;" parent="1" vertex="1">
          <mxGeometry x="-510" y="160" width="100" height="40" as="geometry" />
        </mxCell>
        <mxCell id="XNMidaROCYV1nubGIpJN-7" value="" style="endArrow=classic;html=1;" parent="1" edge="1">
          <mxGeometry width="50" height="50" relative="1" as="geometry">
            <mxPoint x="-760" y="250" as="sourcePoint" />
            <mxPoint x="-617" y="250" as="targetPoint" />
          </mxGeometry>
        </mxCell>
        <mxCell id="XNMidaROCYV1nubGIpJN-8" value="clicks Calendar" style="text;html=1;align=center;verticalAlign=middle;resizable=0;points=[];autosize=1;strokeColor=none;" parent="1" vertex="1">
          <mxGeometry x="-735" y="230" width="100" height="20" as="geometry" />
        </mxCell>
        <mxCell id="XNMidaROCYV1nubGIpJN-9" value="" style="html=1;points=[];perimeter=orthogonalPerimeter;fillColor=#ffffff;" parent="1" vertex="1">
          <mxGeometry x="-765" y="230" width="10" height="160" as="geometry" />
        </mxCell>
        <mxCell id="XNMidaROCYV1nubGIpJN-10" value="" style="html=1;points=[];perimeter=orthogonalPerimeter;fillColor=#ffffff;" parent="1" vertex="1">
          <mxGeometry x="-615" y="240" width="10" height="70" as="geometry" />
        </mxCell>
        <mxCell id="XNMidaROCYV1nubGIpJN-11" value="" style="html=1;points=[];perimeter=orthogonalPerimeter;fillColor=#ffffff;" parent="1" vertex="1">
          <mxGeometry x="-465" y="250" width="10" height="120" as="geometry" />
        </mxCell>
        <mxCell id="XNMidaROCYV1nubGIpJN-12" value="User" style="text;html=1;align=center;verticalAlign=middle;resizable=0;points=[];autosize=1;strokeColor=none;" parent="1" vertex="1">
          <mxGeometry x="-780" y="200" width="40" height="20" as="geometry" />
        </mxCell>
        <mxCell id="XNMidaROCYV1nubGIpJN-13" style="edgeStyle=orthogonalEdgeStyle;rounded=0;orthogonalLoop=1;jettySize=auto;html=1;endArrow=none;endFill=0;dashed=1;" parent="1" source="XNMidaROCYV1nubGIpJN-14" edge="1">
          <mxGeometry relative="1" as="geometry">
            <mxPoint x="-310" y="470" as="targetPoint" />
            <Array as="points">
              <mxPoint x="-310" y="470" />
              <mxPoint x="-310" y="470" />
            </Array>
          </mxGeometry>
        </mxCell>
        <mxCell id="XNMidaROCYV1nubGIpJN-14" value=": Database" style="rounded=0;whiteSpace=wrap;html=1;" parent="1" vertex="1">
          <mxGeometry x="-360" y="160" width="100" height="40" as="geometry" />
        </mxCell>
        <mxCell id="XNMidaROCYV1nubGIpJN-15" value="" style="endArrow=classic;html=1;" parent="1" edge="1">
          <mxGeometry width="50" height="50" relative="1" as="geometry">
            <mxPoint x="-605" y="270" as="sourcePoint" />
            <mxPoint x="-464" y="270" as="targetPoint" />
          </mxGeometry>
        </mxCell>
        <mxCell id="XNMidaROCYV1nubGIpJN-16" value="" style="endArrow=none;html=1;entryX=-0.02;entryY=0.222;entryDx=0;entryDy=0;entryPerimeter=0;endFill=0;startArrow=classic;startFill=1;dashed=1;exitX=1.02;exitY=0.75;exitDx=0;exitDy=0;exitPerimeter=0;" parent="1" source="XNMidaROCYV1nubGIpJN-9" edge="1">
          <mxGeometry width="50" height="50" relative="1" as="geometry">
            <mxPoint x="-604.8" y="350.02" as="sourcePoint" />
            <mxPoint x="-465" y="350" as="targetPoint" />
          </mxGeometry>
        </mxCell>
        <mxCell id="XNMidaROCYV1nubGIpJN-17" value="" style="html=1;points=[];perimeter=orthogonalPerimeter;fillColor=#ffffff;" parent="1" vertex="1">
          <mxGeometry x="-315" y="260" width="10" height="70" as="geometry" />
        </mxCell>
        <mxCell id="XNMidaROCYV1nubGIpJN-18" value="" style="endArrow=classic;html=1;entryX=-0.02;entryY=0.222;entryDx=0;entryDy=0;entryPerimeter=0;" parent="1" edge="1">
          <mxGeometry width="50" height="50" relative="1" as="geometry">
            <mxPoint x="-455" y="280" as="sourcePoint" />
            <mxPoint x="-315.20000000000005" y="279.98" as="targetPoint" />
          </mxGeometry>
        </mxCell>
        <mxCell id="XNMidaROCYV1nubGIpJN-19" value="" style="endArrow=none;html=1;entryX=-0.02;entryY=0.222;entryDx=0;entryDy=0;entryPerimeter=0;startArrow=classic;startFill=1;endFill=0;dashed=1;" parent="1" edge="1">
          <mxGeometry width="50" height="50" relative="1" as="geometry">
            <mxPoint x="-455" y="320.02" as="sourcePoint" />
            <mxPoint x="-315.20000000000005" y="320" as="targetPoint" />
          </mxGeometry>
        </mxCell>
        <mxCell id="XNMidaROCYV1nubGIpJN-20" value="get data" style="text;html=1;align=center;verticalAlign=middle;resizable=0;points=[];autosize=1;strokeColor=none;" parent="1" vertex="1">
          <mxGeometry x="-410" y="300" width="60" height="20" as="geometry" />
        </mxCell>
        <mxCell id="XNMidaROCYV1nubGIpJN-21" value="display Calendar&amp;nbsp;" style="text;html=1;align=center;verticalAlign=middle;resizable=0;points=[];autosize=1;" parent="1" vertex="1">
          <mxGeometry x="-660" y="330" width="110" height="20" as="geometry" />
        </mxCell>
        <mxCell id="XNMidaROCYV1nubGIpJN-22" value="" style="edgeStyle=orthogonalEdgeStyle;rounded=0;orthogonalLoop=1;jettySize=auto;html=1;endArrow=none;endFill=0;dashed=1;" parent="1" source="XNMidaROCYV1nubGIpJN-4" target="XNMidaROCYV1nubGIpJN-21" edge="1">
          <mxGeometry relative="1" as="geometry">
            <mxPoint x="-610" y="630" as="targetPoint" />
            <mxPoint x="-610" y="200" as="sourcePoint" />
            <Array as="points">
              <mxPoint x="-610" y="320" />
              <mxPoint x="-610" y="320" />
            </Array>
          </mxGeometry>
        </mxCell>
        <mxCell id="XNMidaROCYV1nubGIpJN-23" value="send request" style="text;html=1;align=center;verticalAlign=middle;resizable=0;points=[];autosize=1;strokeColor=none;" parent="1" vertex="1">
          <mxGeometry x="-580" y="250" width="90" height="20" as="geometry" />
        </mxCell>
        <mxCell id="XNMidaROCYV1nubGIpJN-24" value="search data" style="text;html=1;align=center;verticalAlign=middle;resizable=0;points=[];autosize=1;strokeColor=none;" parent="1" vertex="1">
          <mxGeometry x="-430" y="260" width="80" height="20" as="geometry" />
        </mxCell>
        <mxCell id="XNMidaROCYV1nubGIpJN-25" value="ViewCR" style="text;html=1;align=center;verticalAlign=middle;resizable=0;points=[];autosize=1;strokeColor=none;" parent="1" vertex="1">
          <mxGeometry x="-770" y="40" width="60" height="20" as="geometry" />
        </mxCell>
      </root>
    </mxGraphModel>
  </diagram>
  <diagram id="ODXswq4wN5cmHXdykt0v" name="Page-2">
    <mxGraphModel dx="1888" dy="572" grid="1" gridSize="10" guides="1" tooltips="1" connect="1" arrows="1" fold="1" page="1" pageScale="1" pageWidth="850" pageHeight="1100" math="0" shadow="0">
      <root>
        <mxCell id="QOUAsrHyEvIyfqVGlaKy-0" />
        <mxCell id="QOUAsrHyEvIyfqVGlaKy-1" parent="QOUAsrHyEvIyfqVGlaKy-0" />
        <mxCell id="XMkbxFREkN_h_jbo4Omm-0" style="edgeStyle=orthogonalEdgeStyle;rounded=0;orthogonalLoop=1;jettySize=auto;html=1;endArrow=none;endFill=0;dashed=1;" parent="QOUAsrHyEvIyfqVGlaKy-1" source="XMkbxFREkN_h_jbo4Omm-8" edge="1">
          <mxGeometry relative="1" as="geometry">
            <mxPoint x="-690" y="510" as="targetPoint" />
            <mxPoint x="-690.5" y="-70.5" as="sourcePoint" />
            <Array as="points" />
          </mxGeometry>
        </mxCell>
        <mxCell id="XMkbxFREkN_h_jbo4Omm-1" value="" style="shape=umlActor;verticalLabelPosition=bottom;verticalAlign=top;html=1;outlineConnect=0;" parent="QOUAsrHyEvIyfqVGlaKy-1" vertex="1">
          <mxGeometry x="-700" y="120" width="20" height="40" as="geometry" />
        </mxCell>
        <mxCell id="XMkbxFREkN_h_jbo4Omm-2" value=": Calendar Reminder" style="rounded=0;whiteSpace=wrap;html=1;" parent="QOUAsrHyEvIyfqVGlaKy-1" vertex="1">
          <mxGeometry x="-590" y="120" width="100" height="40" as="geometry" />
        </mxCell>
        <mxCell id="XMkbxFREkN_h_jbo4Omm-3" style="edgeStyle=orthogonalEdgeStyle;rounded=0;orthogonalLoop=1;jettySize=auto;html=1;endArrow=none;endFill=0;dashed=1;" parent="QOUAsrHyEvIyfqVGlaKy-1" source="XMkbxFREkN_h_jbo4Omm-4" edge="1">
          <mxGeometry relative="1" as="geometry">
            <mxPoint x="-390" y="510" as="targetPoint" />
          </mxGeometry>
        </mxCell>
        <mxCell id="XMkbxFREkN_h_jbo4Omm-4" value=": Database" style="rounded=0;whiteSpace=wrap;html=1;" parent="QOUAsrHyEvIyfqVGlaKy-1" vertex="1">
          <mxGeometry x="-440" y="120" width="100" height="40" as="geometry" />
        </mxCell>
        <mxCell id="XMkbxFREkN_h_jbo4Omm-5" value="" style="endArrow=classic;html=1;" parent="QOUAsrHyEvIyfqVGlaKy-1" edge="1">
          <mxGeometry width="50" height="50" relative="1" as="geometry">
            <mxPoint x="-690" y="210" as="sourcePoint" />
            <mxPoint x="-547" y="210" as="targetPoint" />
          </mxGeometry>
        </mxCell>
        <mxCell id="XMkbxFREkN_h_jbo4Omm-6" value="clicks date button" style="text;html=1;align=center;verticalAlign=middle;resizable=0;points=[];autosize=1;strokeColor=none;" parent="QOUAsrHyEvIyfqVGlaKy-1" vertex="1">
          <mxGeometry x="-670" y="190" width="110" height="20" as="geometry" />
        </mxCell>
        <mxCell id="XMkbxFREkN_h_jbo4Omm-7" value="" style="html=1;points=[];perimeter=orthogonalPerimeter;fillColor=#ffffff;" parent="QOUAsrHyEvIyfqVGlaKy-1" vertex="1">
          <mxGeometry x="-395" y="210" width="10" height="260" as="geometry" />
        </mxCell>
        <mxCell id="XMkbxFREkN_h_jbo4Omm-8" value="User" style="text;html=1;align=center;verticalAlign=middle;resizable=0;points=[];autosize=1;strokeColor=none;" parent="QOUAsrHyEvIyfqVGlaKy-1" vertex="1">
          <mxGeometry x="-710" y="160" width="40" height="20" as="geometry" />
        </mxCell>
        <mxCell id="XMkbxFREkN_h_jbo4Omm-9" value="" style="endArrow=classic;html=1;" parent="QOUAsrHyEvIyfqVGlaKy-1" edge="1">
          <mxGeometry width="50" height="50" relative="1" as="geometry">
            <mxPoint x="-685" y="300" as="sourcePoint" />
            <mxPoint x="-544" y="300" as="targetPoint" />
          </mxGeometry>
        </mxCell>
        <mxCell id="XMkbxFREkN_h_jbo4Omm-10" value="" style="endArrow=none;html=1;entryX=-0.02;entryY=0.222;entryDx=0;entryDy=0;entryPerimeter=0;startArrow=classic;startFill=1;endFill=0;dashed=1;" parent="QOUAsrHyEvIyfqVGlaKy-1" edge="1">
          <mxGeometry width="50" height="50" relative="1" as="geometry">
            <mxPoint x="-685" y="250.01999999999998" as="sourcePoint" />
            <mxPoint x="-545.2" y="250" as="targetPoint" />
          </mxGeometry>
        </mxCell>
        <mxCell id="XMkbxFREkN_h_jbo4Omm-11" value="" style="edgeStyle=orthogonalEdgeStyle;rounded=0;orthogonalLoop=1;jettySize=auto;html=1;endArrow=none;endFill=0;dashed=1;" parent="QOUAsrHyEvIyfqVGlaKy-1" source="XMkbxFREkN_h_jbo4Omm-2" edge="1">
          <mxGeometry relative="1" as="geometry">
            <mxPoint x="-540" y="510" as="targetPoint" />
            <mxPoint x="-540" y="160" as="sourcePoint" />
            <Array as="points">
              <mxPoint x="-540" y="250" />
              <mxPoint x="-540" y="250" />
            </Array>
          </mxGeometry>
        </mxCell>
        <mxCell id="XMkbxFREkN_h_jbo4Omm-12" value="display form" style="text;html=1;align=center;verticalAlign=middle;resizable=0;points=[];autosize=1;strokeColor=none;" parent="QOUAsrHyEvIyfqVGlaKy-1" vertex="1">
          <mxGeometry x="-655" y="230" width="80" height="20" as="geometry" />
        </mxCell>
        <mxCell id="XMkbxFREkN_h_jbo4Omm-13" value="enter event name, &lt;br&gt;time, date" style="text;html=1;align=center;verticalAlign=middle;resizable=0;points=[];autosize=1;strokeColor=none;" parent="QOUAsrHyEvIyfqVGlaKy-1" vertex="1">
          <mxGeometry x="-675" y="265" width="110" height="30" as="geometry" />
        </mxCell>
        <mxCell id="XMkbxFREkN_h_jbo4Omm-16" value="" style="endArrow=classic;html=1;" parent="QOUAsrHyEvIyfqVGlaKy-1" edge="1">
          <mxGeometry width="50" height="50" relative="1" as="geometry">
            <mxPoint x="-535" y="309.5" as="sourcePoint" />
            <mxPoint x="-394" y="309.5" as="targetPoint" />
          </mxGeometry>
        </mxCell>
        <mxCell id="XMkbxFREkN_h_jbo4Omm-18" value="addToReminder&lt;br&gt;(name, time, date)&lt;span style=&quot;color: rgba(0 , 0 , 0 , 0) ; font-family: monospace ; font-size: 0px&quot;&gt;%3CmxGraphModel%3E%3Croot%3E%3CmxCell%20id%3D%220%22%2F%3E%3CmxCell%20id%3D%221%22%20parent%3D%220%22%2F%3E%3CmxCell%20id%3D%222%22%20value%3D%22%22%20style%3D%22endArrow%3Dnone%3Bhtml%3D1%3BentryX%3D-0.02%3BentryY%3D0.222%3BentryDx%3D0%3BentryDy%3D0%3BentryPerimeter%3D0%3BstartArrow%3Dclassic%3BstartFill%3D1%3BendFill%3D0%3Bdashed%3D1%3B%22%20edge%3D%221%22%20parent%3D%221%22%3E%3CmxGeometry%20width%3D%2250%22%20height%3D%2250%22%20relative%3D%221%22%20as%3D%22geometry%22%3E%3CmxPoint%20x%3D%22-340%22%20y%3D%22330.02%22%20as%3D%22sourcePoint%22%2F%3E%3CmxPoint%20x%3D%22-200.20000000000005%22%20y%3D%22330%22%20as%3D%22targetPoint%22%2F%3E%3C%2FmxGeometry%3E%3C%2FmxCell%3E%3C%2Froot%3E%3C%2FmxGraphModel%3E&lt;/span&gt;" style="text;html=1;align=center;verticalAlign=middle;resizable=0;points=[];autosize=1;strokeColor=none;" parent="QOUAsrHyEvIyfqVGlaKy-1" vertex="1">
          <mxGeometry x="-515" y="270" width="110" height="40" as="geometry" />
        </mxCell>
        <mxCell id="XMkbxFREkN_h_jbo4Omm-20" value="" style="endArrow=classic;html=1;" parent="QOUAsrHyEvIyfqVGlaKy-1" edge="1">
          <mxGeometry width="50" height="50" relative="1" as="geometry">
            <mxPoint x="-686" y="343.25" as="sourcePoint" />
            <mxPoint x="-545" y="343.25" as="targetPoint" />
          </mxGeometry>
        </mxCell>
        <mxCell id="XMkbxFREkN_h_jbo4Omm-21" value="clicks add button" style="text;html=1;align=center;verticalAlign=middle;resizable=0;points=[];autosize=1;strokeColor=none;" parent="QOUAsrHyEvIyfqVGlaKy-1" vertex="1">
          <mxGeometry x="-675" y="315.75" width="110" height="20" as="geometry" />
        </mxCell>
        <mxCell id="XMkbxFREkN_h_jbo4Omm-22" value="addToReminder()" style="text;html=1;align=center;verticalAlign=middle;resizable=0;points=[];autosize=1;strokeColor=none;" parent="QOUAsrHyEvIyfqVGlaKy-1" vertex="1">
          <mxGeometry x="-525" y="335.75" width="110" height="20" as="geometry" />
        </mxCell>
        <mxCell id="XMkbxFREkN_h_jbo4Omm-23" value="" style="html=1;points=[];perimeter=orthogonalPerimeter;fillColor=#FFFFFF;" parent="QOUAsrHyEvIyfqVGlaKy-1" vertex="1">
          <mxGeometry x="-545" y="378.25" width="10" height="30" as="geometry" />
        </mxCell>
        <mxCell id="XMkbxFREkN_h_jbo4Omm-24" value="" style="html=1;points=[];perimeter=orthogonalPerimeter;fillColor=#FFFFFF;" parent="QOUAsrHyEvIyfqVGlaKy-1" vertex="1">
          <mxGeometry x="-695" y="373.25" width="10" height="30" as="geometry" />
        </mxCell>
        <mxCell id="XMkbxFREkN_h_jbo4Omm-25" value="" style="html=1;points=[];perimeter=orthogonalPerimeter;fillColor=#FFFFFF;" parent="QOUAsrHyEvIyfqVGlaKy-1" vertex="1">
          <mxGeometry x="-695" y="330" width="10" height="30" as="geometry" />
        </mxCell>
        <mxCell id="XMkbxFREkN_h_jbo4Omm-26" value="" style="html=1;points=[];perimeter=orthogonalPerimeter;fillColor=#FFFFFF;" parent="QOUAsrHyEvIyfqVGlaKy-1" vertex="1">
          <mxGeometry x="-545" y="335" width="10" height="55" as="geometry" />
        </mxCell>
        <mxCell id="XMkbxFREkN_h_jbo4Omm-27" value="" style="endArrow=classic;html=1;" parent="QOUAsrHyEvIyfqVGlaKy-1" edge="1">
          <mxGeometry width="50" height="50" relative="1" as="geometry">
            <mxPoint x="-536" y="363.25" as="sourcePoint" />
            <mxPoint x="-395" y="363.25" as="targetPoint" />
          </mxGeometry>
        </mxCell>
        <mxCell id="XMkbxFREkN_h_jbo4Omm-28" value="" style="html=1;points=[];perimeter=orthogonalPerimeter;fillColor=#FFFFFF;" parent="QOUAsrHyEvIyfqVGlaKy-1" vertex="1">
          <mxGeometry x="-545" y="190" width="10" height="280" as="geometry" />
        </mxCell>
        <mxCell id="XMkbxFREkN_h_jbo4Omm-29" value="" style="html=1;points=[];perimeter=orthogonalPerimeter;fillColor=#ffffff;" parent="QOUAsrHyEvIyfqVGlaKy-1" vertex="1">
          <mxGeometry x="-695" y="190" width="10" height="280" as="geometry" />
        </mxCell>
        <mxCell id="XMkbxFREkN_h_jbo4Omm-30" value="" style="endArrow=none;html=1;entryX=-0.02;entryY=0.222;entryDx=0;entryDy=0;entryPerimeter=0;startArrow=classic;startFill=1;endFill=0;dashed=1;" parent="QOUAsrHyEvIyfqVGlaKy-1" edge="1">
          <mxGeometry width="50" height="50" relative="1" as="geometry">
            <mxPoint x="-685" y="408.27" as="sourcePoint" />
            <mxPoint x="-545.2" y="408.25" as="targetPoint" />
          </mxGeometry>
        </mxCell>
        <mxCell id="XMkbxFREkN_h_jbo4Omm-31" value="" style="endArrow=none;html=1;entryX=-0.02;entryY=0.222;entryDx=0;entryDy=0;entryPerimeter=0;startArrow=classic;startFill=1;endFill=0;dashed=1;" parent="QOUAsrHyEvIyfqVGlaKy-1" edge="1">
          <mxGeometry width="50" height="50" relative="1" as="geometry">
            <mxPoint x="-535" y="392.77" as="sourcePoint" />
            <mxPoint x="-395.20000000000005" y="392.75" as="targetPoint" />
          </mxGeometry>
        </mxCell>
        <mxCell id="XMkbxFREkN_h_jbo4Omm-32" value="get data" style="text;html=1;align=center;verticalAlign=middle;resizable=0;points=[];autosize=1;strokeColor=none;" parent="QOUAsrHyEvIyfqVGlaKy-1" vertex="1">
          <mxGeometry x="-490" y="373.25" width="60" height="20" as="geometry" />
        </mxCell>
        <mxCell id="XMkbxFREkN_h_jbo4Omm-33" value="display reminder" style="text;html=1;align=center;verticalAlign=middle;resizable=0;points=[];autosize=1;strokeColor=none;" parent="QOUAsrHyEvIyfqVGlaKy-1" vertex="1">
          <mxGeometry x="-660" y="383.25" width="100" height="20" as="geometry" />
        </mxCell>
        <mxCell id="XMkbxFREkN_h_jbo4Omm-34" value="CreateCR" style="text;html=1;align=center;verticalAlign=middle;resizable=0;points=[];autosize=1;strokeColor=none;" parent="QOUAsrHyEvIyfqVGlaKy-1" vertex="1">
          <mxGeometry x="-775" y="50" width="70" height="20" as="geometry" />
        </mxCell>
      </root>
    </mxGraphModel>
  </diagram>
  <diagram id="WRI_2vnYquDdyq1QDHdh" name="Page-3">
    <mxGraphModel dx="1888" dy="572" grid="1" gridSize="10" guides="1" tooltips="1" connect="1" arrows="1" fold="1" page="1" pageScale="1" pageWidth="850" pageHeight="1100" math="0" shadow="0">
      <root>
        <mxCell id="7eeXXGMoOkntVgZTKwPD-0" />
        <mxCell id="7eeXXGMoOkntVgZTKwPD-1" parent="7eeXXGMoOkntVgZTKwPD-0" />
        <mxCell id="eJCgkgd9Sn-ucDb7i4Up-0" style="edgeStyle=orthogonalEdgeStyle;rounded=0;orthogonalLoop=1;jettySize=auto;html=1;endArrow=none;endFill=0;dashed=1;" parent="7eeXXGMoOkntVgZTKwPD-1" source="eJCgkgd9Sn-ucDb7i4Up-8" edge="1">
          <mxGeometry relative="1" as="geometry">
            <mxPoint x="-690" y="510" as="targetPoint" />
            <mxPoint x="-690.5" y="-70.5" as="sourcePoint" />
            <Array as="points" />
          </mxGeometry>
        </mxCell>
        <mxCell id="eJCgkgd9Sn-ucDb7i4Up-1" value="" style="shape=umlActor;verticalLabelPosition=bottom;verticalAlign=top;html=1;outlineConnect=0;" parent="7eeXXGMoOkntVgZTKwPD-1" vertex="1">
          <mxGeometry x="-700" y="120" width="20" height="40" as="geometry" />
        </mxCell>
        <mxCell id="eJCgkgd9Sn-ucDb7i4Up-2" value=": Calendar Reminder" style="rounded=0;whiteSpace=wrap;html=1;" parent="7eeXXGMoOkntVgZTKwPD-1" vertex="1">
          <mxGeometry x="-590" y="120" width="100" height="40" as="geometry" />
        </mxCell>
        <mxCell id="eJCgkgd9Sn-ucDb7i4Up-3" style="edgeStyle=orthogonalEdgeStyle;rounded=0;orthogonalLoop=1;jettySize=auto;html=1;endArrow=none;endFill=0;dashed=1;" parent="7eeXXGMoOkntVgZTKwPD-1" source="eJCgkgd9Sn-ucDb7i4Up-4" edge="1">
          <mxGeometry relative="1" as="geometry">
            <mxPoint x="-390" y="510" as="targetPoint" />
          </mxGeometry>
        </mxCell>
        <mxCell id="eJCgkgd9Sn-ucDb7i4Up-4" value=": Database" style="rounded=0;whiteSpace=wrap;html=1;" parent="7eeXXGMoOkntVgZTKwPD-1" vertex="1">
          <mxGeometry x="-440" y="120" width="100" height="40" as="geometry" />
        </mxCell>
        <mxCell id="eJCgkgd9Sn-ucDb7i4Up-5" value="" style="endArrow=classic;html=1;" parent="7eeXXGMoOkntVgZTKwPD-1" edge="1">
          <mxGeometry width="50" height="50" relative="1" as="geometry">
            <mxPoint x="-690" y="210" as="sourcePoint" />
            <mxPoint x="-547" y="210" as="targetPoint" />
          </mxGeometry>
        </mxCell>
        <mxCell id="eJCgkgd9Sn-ucDb7i4Up-6" value="clicks date button" style="text;html=1;align=center;verticalAlign=middle;resizable=0;points=[];autosize=1;strokeColor=none;" parent="7eeXXGMoOkntVgZTKwPD-1" vertex="1">
          <mxGeometry x="-670" y="190" width="110" height="20" as="geometry" />
        </mxCell>
        <mxCell id="eJCgkgd9Sn-ucDb7i4Up-7" value="" style="html=1;points=[];perimeter=orthogonalPerimeter;fillColor=#ffffff;" parent="7eeXXGMoOkntVgZTKwPD-1" vertex="1">
          <mxGeometry x="-395" y="210" width="10" height="260" as="geometry" />
        </mxCell>
        <mxCell id="eJCgkgd9Sn-ucDb7i4Up-8" value="User" style="text;html=1;align=center;verticalAlign=middle;resizable=0;points=[];autosize=1;strokeColor=none;" parent="7eeXXGMoOkntVgZTKwPD-1" vertex="1">
          <mxGeometry x="-710" y="160" width="40" height="20" as="geometry" />
        </mxCell>
        <mxCell id="eJCgkgd9Sn-ucDb7i4Up-9" value="" style="endArrow=classic;html=1;" parent="7eeXXGMoOkntVgZTKwPD-1" edge="1">
          <mxGeometry width="50" height="50" relative="1" as="geometry">
            <mxPoint x="-685" y="300" as="sourcePoint" />
            <mxPoint x="-544" y="300" as="targetPoint" />
          </mxGeometry>
        </mxCell>
        <mxCell id="eJCgkgd9Sn-ucDb7i4Up-10" value="" style="endArrow=none;html=1;entryX=-0.02;entryY=0.222;entryDx=0;entryDy=0;entryPerimeter=0;startArrow=classic;startFill=1;endFill=0;dashed=1;" parent="7eeXXGMoOkntVgZTKwPD-1" edge="1">
          <mxGeometry width="50" height="50" relative="1" as="geometry">
            <mxPoint x="-685" y="269.02" as="sourcePoint" />
            <mxPoint x="-545.2" y="269" as="targetPoint" />
          </mxGeometry>
        </mxCell>
        <mxCell id="eJCgkgd9Sn-ucDb7i4Up-11" value="" style="edgeStyle=orthogonalEdgeStyle;rounded=0;orthogonalLoop=1;jettySize=auto;html=1;endArrow=none;endFill=0;dashed=1;" parent="7eeXXGMoOkntVgZTKwPD-1" source="eJCgkgd9Sn-ucDb7i4Up-2" edge="1">
          <mxGeometry relative="1" as="geometry">
            <mxPoint x="-540" y="510" as="targetPoint" />
            <mxPoint x="-540" y="160" as="sourcePoint" />
            <Array as="points">
              <mxPoint x="-540" y="250" />
              <mxPoint x="-540" y="250" />
            </Array>
          </mxGeometry>
        </mxCell>
        <mxCell id="eJCgkgd9Sn-ucDb7i4Up-12" value="display form" style="text;html=1;align=center;verticalAlign=middle;resizable=0;points=[];autosize=1;strokeColor=none;" parent="7eeXXGMoOkntVgZTKwPD-1" vertex="1">
          <mxGeometry x="-655" y="250" width="80" height="20" as="geometry" />
        </mxCell>
        <mxCell id="eJCgkgd9Sn-ucDb7i4Up-13" value="enter event name, &lt;br&gt;time" style="text;html=1;align=center;verticalAlign=middle;resizable=0;points=[];autosize=1;strokeColor=none;" parent="7eeXXGMoOkntVgZTKwPD-1" vertex="1">
          <mxGeometry x="-675" y="270" width="110" height="30" as="geometry" />
        </mxCell>
        <mxCell id="eJCgkgd9Sn-ucDb7i4Up-14" value="" style="endArrow=classic;html=1;" parent="7eeXXGMoOkntVgZTKwPD-1" edge="1">
          <mxGeometry width="50" height="50" relative="1" as="geometry">
            <mxPoint x="-685" y="340" as="sourcePoint" />
            <mxPoint x="-544" y="340" as="targetPoint" />
          </mxGeometry>
        </mxCell>
        <mxCell id="eJCgkgd9Sn-ucDb7i4Up-15" value="" style="endArrow=classic;html=1;" parent="7eeXXGMoOkntVgZTKwPD-1" edge="1">
          <mxGeometry width="50" height="50" relative="1" as="geometry">
            <mxPoint x="-536" y="360" as="sourcePoint" />
            <mxPoint x="-395" y="360" as="targetPoint" />
          </mxGeometry>
        </mxCell>
        <mxCell id="eJCgkgd9Sn-ucDb7i4Up-16" value="" style="endArrow=classic;html=1;" parent="7eeXXGMoOkntVgZTKwPD-1" edge="1">
          <mxGeometry width="50" height="50" relative="1" as="geometry">
            <mxPoint x="-535" y="309.5" as="sourcePoint" />
            <mxPoint x="-394" y="309.5" as="targetPoint" />
          </mxGeometry>
        </mxCell>
        <mxCell id="eJCgkgd9Sn-ucDb7i4Up-17" value="select sound&amp;nbsp;" style="text;html=1;align=center;verticalAlign=middle;resizable=0;points=[];autosize=1;strokeColor=none;" parent="7eeXXGMoOkntVgZTKwPD-1" vertex="1">
          <mxGeometry x="-665" y="320" width="90" height="20" as="geometry" />
        </mxCell>
        <mxCell id="eJCgkgd9Sn-ucDb7i4Up-18" value="UpdateReminder&lt;br&gt;(name, time)&lt;span style=&quot;color: rgba(0 , 0 , 0 , 0) ; font-family: monospace ; font-size: 0px&quot;&gt;%3CmxGraphModel%3E%3Croot%3E%3CmxCell%20id%3D%220%22%2F%3E%3CmxCell%20id%3D%221%22%20parent%3D%220%22%2F%3E%3CmxCell%20id%3D%222%22%20value%3D%22%22%20style%3D%22endArrow%3Dnone%3Bhtml%3D1%3BentryX%3D-0.02%3BentryY%3D0.222%3BentryDx%3D0%3BentryDy%3D0%3BentryPerimeter%3D0%3BstartArrow%3Dclassic%3BstartFill%3D1%3BendFill%3D0%3Bdashed%3D1%3B%22%20edge%3D%221%22%20parent%3D%221%22%3E%3CmxGeometry%20width%3D%2250%22%20height%3D%2250%22%20relative%3D%221%22%20as%3D%22geometry%22%3E%3CmxPoint%20x%3D%22-340%22%20y%3D%22330.02%22%20as%3D%22sourcePoint%22%2F%3E%3CmxPoint%20x%3D%22-200.20000000000005%22%20y%3D%22330%22%20as%3D%22targetPoint%22%2F%3E%3C%2FmxGeometry%3E%3C%2FmxCell%3E%3C%2Froot%3E%3C%2FmxGraphModel%3E&lt;/span&gt;" style="text;html=1;align=center;verticalAlign=middle;resizable=0;points=[];autosize=1;strokeColor=none;" parent="7eeXXGMoOkntVgZTKwPD-1" vertex="1">
          <mxGeometry x="-515" y="270" width="110" height="40" as="geometry" />
        </mxCell>
        <mxCell id="eJCgkgd9Sn-ucDb7i4Up-19" value="UpdateReminder&lt;br&gt;(sound)&lt;span style=&quot;color: rgba(0 , 0 , 0 , 0) ; font-family: monospace ; font-size: 0px&quot;&gt;%3CmxGraphModel%3E%3Croot%3E%3CmxCell%20id%3D%220%22%2F%3E%3CmxCell%20id%3D%221%22%20parent%3D%220%22%2F%3E%3CmxCell%20id%3D%222%22%20value%3D%22%22%20style%3D%22endArrow%3Dnone%3Bhtml%3D1%3BentryX%3D-0.02%3BentryY%3D0.222%3BentryDx%3D0%3BentryDy%3D0%3BentryPerimeter%3D0%3BstartArrow%3Dclassic%3BstartFill%3D1%3BendFill%3D0%3Bdashed%3D1%3B%22%20edge%3D%221%22%20parent%3D%221%22%3E%3CmxGeometry%20width%3D%2250%22%20height%3D%2250%22%20relative%3D%221%22%20as%3D%22geometry%22%3E%3CmxPoint%20x%3D%22-340%22%20y%3D%22330.02%22%20as%3D%22sourcePoint%22%2F%3E%3CmxPoint%20x%3D%22-200.20000000000005%22%20y%3D%22330%22%20as%3D%22targetPoint%22%2F%3E%3C%2FmxGeometry%3E%3C%2FmxCell%3E%3C%2Froot%3E%3C%2FmxGraphModel%3E&lt;/span&gt;" style="text;html=1;align=center;verticalAlign=middle;resizable=0;points=[];autosize=1;strokeColor=none;" parent="7eeXXGMoOkntVgZTKwPD-1" vertex="1">
          <mxGeometry x="-515" y="320" width="110" height="40" as="geometry" />
        </mxCell>
        <mxCell id="eJCgkgd9Sn-ucDb7i4Up-20" value="" style="endArrow=classic;html=1;" parent="7eeXXGMoOkntVgZTKwPD-1" edge="1">
          <mxGeometry width="50" height="50" relative="1" as="geometry">
            <mxPoint x="-686" y="380" as="sourcePoint" />
            <mxPoint x="-545" y="380" as="targetPoint" />
          </mxGeometry>
        </mxCell>
        <mxCell id="eJCgkgd9Sn-ucDb7i4Up-21" value="clicks add button" style="text;html=1;align=center;verticalAlign=middle;resizable=0;points=[];autosize=1;strokeColor=none;" parent="7eeXXGMoOkntVgZTKwPD-1" vertex="1">
          <mxGeometry x="-675" y="352.5" width="110" height="20" as="geometry" />
        </mxCell>
        <mxCell id="eJCgkgd9Sn-ucDb7i4Up-22" value="UpdateReminder()" style="text;html=1;align=center;verticalAlign=middle;resizable=0;points=[];autosize=1;strokeColor=none;" parent="7eeXXGMoOkntVgZTKwPD-1" vertex="1">
          <mxGeometry x="-525" y="372.5" width="110" height="20" as="geometry" />
        </mxCell>
        <mxCell id="eJCgkgd9Sn-ucDb7i4Up-23" value="" style="html=1;points=[];perimeter=orthogonalPerimeter;fillColor=#FFFFFF;" parent="7eeXXGMoOkntVgZTKwPD-1" vertex="1">
          <mxGeometry x="-545" y="415" width="10" height="30" as="geometry" />
        </mxCell>
        <mxCell id="eJCgkgd9Sn-ucDb7i4Up-24" value="" style="html=1;points=[];perimeter=orthogonalPerimeter;fillColor=#FFFFFF;" parent="7eeXXGMoOkntVgZTKwPD-1" vertex="1">
          <mxGeometry x="-695" y="410" width="10" height="30" as="geometry" />
        </mxCell>
        <mxCell id="eJCgkgd9Sn-ucDb7i4Up-25" value="" style="html=1;points=[];perimeter=orthogonalPerimeter;fillColor=#FFFFFF;" parent="7eeXXGMoOkntVgZTKwPD-1" vertex="1">
          <mxGeometry x="-695" y="330" width="10" height="30" as="geometry" />
        </mxCell>
        <mxCell id="eJCgkgd9Sn-ucDb7i4Up-26" value="" style="html=1;points=[];perimeter=orthogonalPerimeter;fillColor=#FFFFFF;" parent="7eeXXGMoOkntVgZTKwPD-1" vertex="1">
          <mxGeometry x="-545" y="335" width="10" height="55" as="geometry" />
        </mxCell>
        <mxCell id="eJCgkgd9Sn-ucDb7i4Up-27" value="" style="endArrow=classic;html=1;" parent="7eeXXGMoOkntVgZTKwPD-1" edge="1">
          <mxGeometry width="50" height="50" relative="1" as="geometry">
            <mxPoint x="-536" y="400" as="sourcePoint" />
            <mxPoint x="-395" y="400" as="targetPoint" />
          </mxGeometry>
        </mxCell>
        <mxCell id="eJCgkgd9Sn-ucDb7i4Up-28" value="" style="html=1;points=[];perimeter=orthogonalPerimeter;fillColor=#FFFFFF;" parent="7eeXXGMoOkntVgZTKwPD-1" vertex="1">
          <mxGeometry x="-545" y="190" width="10" height="280" as="geometry" />
        </mxCell>
        <mxCell id="eJCgkgd9Sn-ucDb7i4Up-29" value="" style="html=1;points=[];perimeter=orthogonalPerimeter;fillColor=#ffffff;" parent="7eeXXGMoOkntVgZTKwPD-1" vertex="1">
          <mxGeometry x="-695" y="190" width="10" height="280" as="geometry" />
        </mxCell>
        <mxCell id="eJCgkgd9Sn-ucDb7i4Up-30" value="" style="endArrow=none;html=1;entryX=-0.02;entryY=0.222;entryDx=0;entryDy=0;entryPerimeter=0;startArrow=classic;startFill=1;endFill=0;dashed=1;" parent="7eeXXGMoOkntVgZTKwPD-1" edge="1">
          <mxGeometry width="50" height="50" relative="1" as="geometry">
            <mxPoint x="-685" y="445.02" as="sourcePoint" />
            <mxPoint x="-545.2" y="445" as="targetPoint" />
          </mxGeometry>
        </mxCell>
        <mxCell id="eJCgkgd9Sn-ucDb7i4Up-31" value="" style="endArrow=none;html=1;entryX=-0.02;entryY=0.222;entryDx=0;entryDy=0;entryPerimeter=0;startArrow=classic;startFill=1;endFill=0;dashed=1;" parent="7eeXXGMoOkntVgZTKwPD-1" edge="1">
          <mxGeometry width="50" height="50" relative="1" as="geometry">
            <mxPoint x="-535" y="429.52" as="sourcePoint" />
            <mxPoint x="-395.20000000000005" y="429.5" as="targetPoint" />
          </mxGeometry>
        </mxCell>
        <mxCell id="eJCgkgd9Sn-ucDb7i4Up-32" value="get data" style="text;html=1;align=center;verticalAlign=middle;resizable=0;points=[];autosize=1;strokeColor=none;" parent="7eeXXGMoOkntVgZTKwPD-1" vertex="1">
          <mxGeometry x="-490" y="410" width="60" height="20" as="geometry" />
        </mxCell>
        <mxCell id="eJCgkgd9Sn-ucDb7i4Up-33" value="display reminder" style="text;html=1;align=center;verticalAlign=middle;resizable=0;points=[];autosize=1;strokeColor=none;" parent="7eeXXGMoOkntVgZTKwPD-1" vertex="1">
          <mxGeometry x="-660" y="420" width="100" height="20" as="geometry" />
        </mxCell>
        <mxCell id="eJCgkgd9Sn-ucDb7i4Up-34" value="UpdateCR" style="text;html=1;align=center;verticalAlign=middle;resizable=0;points=[];autosize=1;strokeColor=none;" parent="7eeXXGMoOkntVgZTKwPD-1" vertex="1">
          <mxGeometry x="-775" y="50" width="70" height="20" as="geometry" />
        </mxCell>
        <mxCell id="eJCgkgd9Sn-ucDb7i4Up-35" value="" style="endArrow=classic;html=1;" parent="7eeXXGMoOkntVgZTKwPD-1" edge="1">
          <mxGeometry width="50" height="50" relative="1" as="geometry">
            <mxPoint x="-685" y="240" as="sourcePoint" />
            <mxPoint x="-542" y="240" as="targetPoint" />
          </mxGeometry>
        </mxCell>
        <mxCell id="eJCgkgd9Sn-ucDb7i4Up-36" value="clicks Update button" style="text;html=1;align=center;verticalAlign=middle;resizable=0;points=[];autosize=1;strokeColor=none;" parent="7eeXXGMoOkntVgZTKwPD-1" vertex="1">
          <mxGeometry x="-675" y="220" width="120" height="20" as="geometry" />
        </mxCell>
      </root>
    </mxGraphModel>
  </diagram>
  <diagram id="ws-VOI6jaWYplSSKGuZ8" name="Page-4">
    <mxGraphModel dx="1888" dy="572" grid="1" gridSize="10" guides="1" tooltips="1" connect="1" arrows="1" fold="1" page="1" pageScale="1" pageWidth="850" pageHeight="1100" math="0" shadow="0">
      <root>
        <mxCell id="lTAi2QQEjiEQev_Xjvd8-0" />
        <mxCell id="lTAi2QQEjiEQev_Xjvd8-1" parent="lTAi2QQEjiEQev_Xjvd8-0" />
        <mxCell id="7wprUEZa_STBgc2Ism6J-30" value="Delete Reminder" style="text;html=1;align=center;verticalAlign=middle;resizable=0;points=[];autosize=1;strokeColor=none;" parent="lTAi2QQEjiEQev_Xjvd8-1" vertex="1">
          <mxGeometry x="-815" y="40" width="110" height="20" as="geometry" />
        </mxCell>
        <mxCell id="7wprUEZa_STBgc2Ism6J-31" style="edgeStyle=orthogonalEdgeStyle;rounded=0;orthogonalLoop=1;jettySize=auto;html=1;endArrow=none;endFill=0;dashed=1;" parent="lTAi2QQEjiEQev_Xjvd8-1" source="7wprUEZa_STBgc2Ism6J-39" edge="1">
          <mxGeometry relative="1" as="geometry">
            <mxPoint x="-690" y="510" as="targetPoint" />
            <mxPoint x="-690.5" y="-70.5" as="sourcePoint" />
            <Array as="points" />
          </mxGeometry>
        </mxCell>
        <mxCell id="7wprUEZa_STBgc2Ism6J-32" value="" style="shape=umlActor;verticalLabelPosition=bottom;verticalAlign=top;html=1;outlineConnect=0;" parent="lTAi2QQEjiEQev_Xjvd8-1" vertex="1">
          <mxGeometry x="-700" y="120" width="20" height="40" as="geometry" />
        </mxCell>
        <mxCell id="7wprUEZa_STBgc2Ism6J-33" value=": Calendar Reminder" style="rounded=0;whiteSpace=wrap;html=1;" parent="lTAi2QQEjiEQev_Xjvd8-1" vertex="1">
          <mxGeometry x="-590" y="120" width="100" height="40" as="geometry" />
        </mxCell>
        <mxCell id="7wprUEZa_STBgc2Ism6J-34" style="edgeStyle=orthogonalEdgeStyle;rounded=0;orthogonalLoop=1;jettySize=auto;html=1;endArrow=none;endFill=0;dashed=1;" parent="lTAi2QQEjiEQev_Xjvd8-1" source="7wprUEZa_STBgc2Ism6J-35" edge="1">
          <mxGeometry relative="1" as="geometry">
            <mxPoint x="-390" y="510" as="targetPoint" />
          </mxGeometry>
        </mxCell>
        <mxCell id="7wprUEZa_STBgc2Ism6J-35" value=": Database" style="rounded=0;whiteSpace=wrap;html=1;" parent="lTAi2QQEjiEQev_Xjvd8-1" vertex="1">
          <mxGeometry x="-440" y="120" width="100" height="40" as="geometry" />
        </mxCell>
        <mxCell id="7wprUEZa_STBgc2Ism6J-36" value="" style="endArrow=classic;html=1;" parent="lTAi2QQEjiEQev_Xjvd8-1" edge="1">
          <mxGeometry width="50" height="50" relative="1" as="geometry">
            <mxPoint x="-690" y="210" as="sourcePoint" />
            <mxPoint x="-547" y="210" as="targetPoint" />
          </mxGeometry>
        </mxCell>
        <mxCell id="7wprUEZa_STBgc2Ism6J-37" value="clicks reminder" style="text;html=1;align=center;verticalAlign=middle;resizable=0;points=[];autosize=1;strokeColor=none;" parent="lTAi2QQEjiEQev_Xjvd8-1" vertex="1">
          <mxGeometry x="-665" y="190" width="100" height="20" as="geometry" />
        </mxCell>
        <mxCell id="7wprUEZa_STBgc2Ism6J-38" value="" style="html=1;points=[];perimeter=orthogonalPerimeter;fillColor=#ffffff;" parent="lTAi2QQEjiEQev_Xjvd8-1" vertex="1">
          <mxGeometry x="-395" y="210" width="10" height="260" as="geometry" />
        </mxCell>
        <mxCell id="7wprUEZa_STBgc2Ism6J-39" value="User" style="text;html=1;align=center;verticalAlign=middle;resizable=0;points=[];autosize=1;strokeColor=none;" parent="lTAi2QQEjiEQev_Xjvd8-1" vertex="1">
          <mxGeometry x="-710" y="160" width="40" height="20" as="geometry" />
        </mxCell>
        <mxCell id="7wprUEZa_STBgc2Ism6J-40" value="" style="endArrow=none;html=1;entryX=-0.02;entryY=0.222;entryDx=0;entryDy=0;entryPerimeter=0;startArrow=classic;startFill=1;endFill=0;dashed=1;" parent="lTAi2QQEjiEQev_Xjvd8-1" edge="1">
          <mxGeometry width="50" height="50" relative="1" as="geometry">
            <mxPoint x="-685" y="260.02" as="sourcePoint" />
            <mxPoint x="-545.2" y="260" as="targetPoint" />
          </mxGeometry>
        </mxCell>
        <mxCell id="7wprUEZa_STBgc2Ism6J-41" value="" style="edgeStyle=orthogonalEdgeStyle;rounded=0;orthogonalLoop=1;jettySize=auto;html=1;endArrow=none;endFill=0;dashed=1;" parent="lTAi2QQEjiEQev_Xjvd8-1" source="7wprUEZa_STBgc2Ism6J-33" edge="1">
          <mxGeometry relative="1" as="geometry">
            <mxPoint x="-540" y="510" as="targetPoint" />
            <mxPoint x="-540" y="160" as="sourcePoint" />
            <Array as="points">
              <mxPoint x="-540" y="250" />
              <mxPoint x="-540" y="250" />
            </Array>
          </mxGeometry>
        </mxCell>
        <mxCell id="7wprUEZa_STBgc2Ism6J-42" value="display event" style="text;html=1;align=center;verticalAlign=middle;resizable=0;points=[];autosize=1;strokeColor=none;" parent="lTAi2QQEjiEQev_Xjvd8-1" vertex="1">
          <mxGeometry x="-665" y="240" width="90" height="20" as="geometry" />
        </mxCell>
        <mxCell id="7wprUEZa_STBgc2Ism6J-43" value="" style="endArrow=classic;html=1;" parent="lTAi2QQEjiEQev_Xjvd8-1" edge="1">
          <mxGeometry width="50" height="50" relative="1" as="geometry">
            <mxPoint x="-535" y="334" as="sourcePoint" />
            <mxPoint x="-394" y="334" as="targetPoint" />
          </mxGeometry>
        </mxCell>
        <mxCell id="7wprUEZa_STBgc2Ism6J-46" value="DeleteReminder()" style="text;html=1;align=center;verticalAlign=middle;resizable=0;points=[];autosize=1;strokeColor=none;" parent="lTAi2QQEjiEQev_Xjvd8-1" vertex="1">
          <mxGeometry x="-520" y="314" width="110" height="20" as="geometry" />
        </mxCell>
        <mxCell id="7wprUEZa_STBgc2Ism6J-47" value="" style="html=1;points=[];perimeter=orthogonalPerimeter;fillColor=#FFFFFF;" parent="lTAi2QQEjiEQev_Xjvd8-1" vertex="1">
          <mxGeometry x="-545" y="359" width="10" height="30" as="geometry" />
        </mxCell>
        <mxCell id="7wprUEZa_STBgc2Ism6J-48" value="" style="html=1;points=[];perimeter=orthogonalPerimeter;fillColor=#FFFFFF;" parent="lTAi2QQEjiEQev_Xjvd8-1" vertex="1">
          <mxGeometry x="-695" y="354" width="10" height="30" as="geometry" />
        </mxCell>
        <mxCell id="7wprUEZa_STBgc2Ism6J-49" value="" style="html=1;points=[];perimeter=orthogonalPerimeter;fillColor=#FFFFFF;" parent="lTAi2QQEjiEQev_Xjvd8-1" vertex="1">
          <mxGeometry x="-695" y="330" width="10" height="30" as="geometry" />
        </mxCell>
        <mxCell id="7wprUEZa_STBgc2Ism6J-50" value="" style="html=1;points=[];perimeter=orthogonalPerimeter;fillColor=#FFFFFF;" parent="lTAi2QQEjiEQev_Xjvd8-1" vertex="1">
          <mxGeometry x="-545" y="335" width="10" height="55" as="geometry" />
        </mxCell>
        <mxCell id="7wprUEZa_STBgc2Ism6J-51" value="" style="html=1;points=[];perimeter=orthogonalPerimeter;fillColor=#FFFFFF;" parent="lTAi2QQEjiEQev_Xjvd8-1" vertex="1">
          <mxGeometry x="-545" y="190" width="10" height="280" as="geometry" />
        </mxCell>
        <mxCell id="7wprUEZa_STBgc2Ism6J-52" value="" style="html=1;points=[];perimeter=orthogonalPerimeter;fillColor=#ffffff;" parent="lTAi2QQEjiEQev_Xjvd8-1" vertex="1">
          <mxGeometry x="-695" y="190" width="10" height="280" as="geometry" />
        </mxCell>
        <mxCell id="7wprUEZa_STBgc2Ism6J-54" value="" style="endArrow=none;html=1;entryX=-0.02;entryY=0.222;entryDx=0;entryDy=0;entryPerimeter=0;startArrow=classic;startFill=1;endFill=0;dashed=1;" parent="lTAi2QQEjiEQev_Xjvd8-1" edge="1">
          <mxGeometry width="50" height="50" relative="1" as="geometry">
            <mxPoint x="-535" y="373.52" as="sourcePoint" />
            <mxPoint x="-395.20000000000005" y="373.5" as="targetPoint" />
          </mxGeometry>
        </mxCell>
        <mxCell id="7wprUEZa_STBgc2Ism6J-55" value="get data" style="text;html=1;align=center;verticalAlign=middle;resizable=0;points=[];autosize=1;strokeColor=none;" parent="lTAi2QQEjiEQev_Xjvd8-1" vertex="1">
          <mxGeometry x="-490" y="354" width="60" height="20" as="geometry" />
        </mxCell>
        <mxCell id="7wprUEZa_STBgc2Ism6J-57" value="" style="endArrow=classic;html=1;" parent="lTAi2QQEjiEQev_Xjvd8-1" edge="1">
          <mxGeometry width="50" height="50" relative="1" as="geometry">
            <mxPoint x="-686.5" y="300" as="sourcePoint" />
            <mxPoint x="-543.5" y="300" as="targetPoint" />
          </mxGeometry>
        </mxCell>
        <mxCell id="7wprUEZa_STBgc2Ism6J-58" value="clicks Delete button" style="text;html=1;align=center;verticalAlign=middle;resizable=0;points=[];autosize=1;strokeColor=none;" parent="lTAi2QQEjiEQev_Xjvd8-1" vertex="1">
          <mxGeometry x="-680" y="270" width="120" height="20" as="geometry" />
        </mxCell>
        <mxCell id="7wprUEZa_STBgc2Ism6J-59" value="" style="endArrow=none;html=1;entryX=-0.02;entryY=0.222;entryDx=0;entryDy=0;entryPerimeter=0;startArrow=classic;startFill=1;endFill=0;dashed=1;" parent="lTAi2QQEjiEQev_Xjvd8-1" edge="1">
          <mxGeometry width="50" height="50" relative="1" as="geometry">
            <mxPoint x="-684.8" y="389.02" as="sourcePoint" />
            <mxPoint x="-545" y="389" as="targetPoint" />
          </mxGeometry>
        </mxCell>
        <mxCell id="7wprUEZa_STBgc2Ism6J-60" value="display Timetable" style="text;html=1;align=center;verticalAlign=middle;resizable=0;points=[];autosize=1;strokeColor=none;" parent="lTAi2QQEjiEQev_Xjvd8-1" vertex="1">
          <mxGeometry x="-675" y="369" width="110" height="20" as="geometry" />
        </mxCell>
      </root>
    </mxGraphModel>
  </diagram>
  <diagram id="rBesEK0gqgIfEHMogeYM" name="Page-5">
    <mxGraphModel dx="1888" dy="548" grid="1" gridSize="10" guides="1" tooltips="1" connect="1" arrows="1" fold="1" page="1" pageScale="1" pageWidth="850" pageHeight="1100" math="0" shadow="0">
      <root>
        <mxCell id="a0_NJ3MqM7fps5Hap8y8-0" />
        <mxCell id="a0_NJ3MqM7fps5Hap8y8-1" parent="a0_NJ3MqM7fps5Hap8y8-0" />
        <mxCell id="NXuTi8ThN2YFOEaSx7Tm-0" style="edgeStyle=orthogonalEdgeStyle;rounded=0;orthogonalLoop=1;jettySize=auto;html=1;endArrow=none;endFill=0;dashed=1;" edge="1" parent="a0_NJ3MqM7fps5Hap8y8-1" source="NXuTi8ThN2YFOEaSx7Tm-8">
          <mxGeometry relative="1" as="geometry">
            <mxPoint x="-690" y="410" as="targetPoint" />
            <mxPoint x="-690.5" y="-70.5" as="sourcePoint" />
            <Array as="points" />
          </mxGeometry>
        </mxCell>
        <mxCell id="NXuTi8ThN2YFOEaSx7Tm-1" value="" style="shape=umlActor;verticalLabelPosition=bottom;verticalAlign=top;html=1;outlineConnect=0;" vertex="1" parent="a0_NJ3MqM7fps5Hap8y8-1">
          <mxGeometry x="-700" y="120" width="20" height="40" as="geometry" />
        </mxCell>
        <mxCell id="NXuTi8ThN2YFOEaSx7Tm-2" value=": Calendar Reminder" style="rounded=0;whiteSpace=wrap;html=1;" vertex="1" parent="a0_NJ3MqM7fps5Hap8y8-1">
          <mxGeometry x="-440" y="120" width="100" height="40" as="geometry" />
        </mxCell>
        <mxCell id="NXuTi8ThN2YFOEaSx7Tm-3" style="edgeStyle=orthogonalEdgeStyle;rounded=0;orthogonalLoop=1;jettySize=auto;html=1;endArrow=none;endFill=0;dashed=1;" edge="1" parent="a0_NJ3MqM7fps5Hap8y8-1" source="NXuTi8ThN2YFOEaSx7Tm-4">
          <mxGeometry relative="1" as="geometry">
            <mxPoint x="-240" y="410" as="targetPoint" />
          </mxGeometry>
        </mxCell>
        <mxCell id="NXuTi8ThN2YFOEaSx7Tm-4" value=": Database" style="rounded=0;whiteSpace=wrap;html=1;" vertex="1" parent="a0_NJ3MqM7fps5Hap8y8-1">
          <mxGeometry x="-290" y="120" width="100" height="40" as="geometry" />
        </mxCell>
        <mxCell id="NXuTi8ThN2YFOEaSx7Tm-7" value="" style="html=1;points=[];perimeter=orthogonalPerimeter;fillColor=#ffffff;" vertex="1" parent="a0_NJ3MqM7fps5Hap8y8-1">
          <mxGeometry x="-245" y="190" width="10" height="180" as="geometry" />
        </mxCell>
        <mxCell id="NXuTi8ThN2YFOEaSx7Tm-8" value="User" style="text;html=1;align=center;verticalAlign=middle;resizable=0;points=[];autosize=1;strokeColor=none;" vertex="1" parent="a0_NJ3MqM7fps5Hap8y8-1">
          <mxGeometry x="-710" y="160" width="40" height="20" as="geometry" />
        </mxCell>
        <mxCell id="NXuTi8ThN2YFOEaSx7Tm-9" value="" style="endArrow=none;html=1;entryX=-0.02;entryY=0.222;entryDx=0;entryDy=0;entryPerimeter=0;startArrow=classic;startFill=1;endFill=0;dashed=1;" edge="1" parent="a0_NJ3MqM7fps5Hap8y8-1">
          <mxGeometry width="50" height="50" relative="1" as="geometry">
            <mxPoint x="-684.8" y="250.01999999999998" as="sourcePoint" />
            <mxPoint x="-545" y="250" as="targetPoint" />
          </mxGeometry>
        </mxCell>
        <mxCell id="NXuTi8ThN2YFOEaSx7Tm-10" value="" style="edgeStyle=orthogonalEdgeStyle;rounded=0;orthogonalLoop=1;jettySize=auto;html=1;endArrow=none;endFill=0;dashed=1;" edge="1" parent="a0_NJ3MqM7fps5Hap8y8-1" source="NXuTi8ThN2YFOEaSx7Tm-2">
          <mxGeometry relative="1" as="geometry">
            <mxPoint x="-390" y="410" as="targetPoint" />
            <mxPoint x="-390" y="160" as="sourcePoint" />
            <Array as="points">
              <mxPoint x="-390" y="250" />
              <mxPoint x="-390" y="250" />
            </Array>
          </mxGeometry>
        </mxCell>
        <mxCell id="NXuTi8ThN2YFOEaSx7Tm-11" value="notify user" style="text;html=1;align=center;verticalAlign=middle;resizable=0;points=[];autosize=1;strokeColor=none;" vertex="1" parent="a0_NJ3MqM7fps5Hap8y8-1">
          <mxGeometry x="-655" y="230" width="70" height="20" as="geometry" />
        </mxCell>
        <mxCell id="NXuTi8ThN2YFOEaSx7Tm-12" value="" style="endArrow=classic;html=1;" edge="1" parent="a0_NJ3MqM7fps5Hap8y8-1">
          <mxGeometry width="50" height="50" relative="1" as="geometry">
            <mxPoint x="-386" y="340" as="sourcePoint" />
            <mxPoint x="-245" y="340" as="targetPoint" />
          </mxGeometry>
        </mxCell>
        <mxCell id="NXuTi8ThN2YFOEaSx7Tm-18" value="" style="html=1;points=[];perimeter=orthogonalPerimeter;fillColor=#FFFFFF;" vertex="1" parent="a0_NJ3MqM7fps5Hap8y8-1">
          <mxGeometry x="-695" y="330" width="10" height="30" as="geometry" />
        </mxCell>
        <mxCell id="NXuTi8ThN2YFOEaSx7Tm-20" value="" style="html=1;points=[];perimeter=orthogonalPerimeter;fillColor=#FFFFFF;" vertex="1" parent="a0_NJ3MqM7fps5Hap8y8-1">
          <mxGeometry x="-395" y="190" width="10" height="180" as="geometry" />
        </mxCell>
        <mxCell id="NXuTi8ThN2YFOEaSx7Tm-21" value="" style="html=1;points=[];perimeter=orthogonalPerimeter;fillColor=#ffffff;" vertex="1" parent="a0_NJ3MqM7fps5Hap8y8-1">
          <mxGeometry x="-695" y="190" width="10" height="190" as="geometry" />
        </mxCell>
        <mxCell id="NXuTi8ThN2YFOEaSx7Tm-23" value="" style="endArrow=none;html=1;entryX=-0.02;entryY=0.222;entryDx=0;entryDy=0;entryPerimeter=0;startArrow=classic;startFill=1;endFill=0;dashed=1;" edge="1" parent="a0_NJ3MqM7fps5Hap8y8-1">
          <mxGeometry width="50" height="50" relative="1" as="geometry">
            <mxPoint x="-384.8" y="219.51999999999998" as="sourcePoint" />
            <mxPoint x="-245.00000000000006" y="219.5" as="targetPoint" />
          </mxGeometry>
        </mxCell>
        <mxCell id="NXuTi8ThN2YFOEaSx7Tm-24" value="get data" style="text;html=1;align=center;verticalAlign=middle;resizable=0;points=[];autosize=1;strokeColor=none;" vertex="1" parent="a0_NJ3MqM7fps5Hap8y8-1">
          <mxGeometry x="-345" y="200" width="60" height="20" as="geometry" />
        </mxCell>
        <mxCell id="NXuTi8ThN2YFOEaSx7Tm-25" value="DeleteReminder" style="text;html=1;align=center;verticalAlign=middle;resizable=0;points=[];autosize=1;strokeColor=none;" vertex="1" parent="a0_NJ3MqM7fps5Hap8y8-1">
          <mxGeometry x="-365" y="320" width="100" height="20" as="geometry" />
        </mxCell>
        <mxCell id="NXuTi8ThN2YFOEaSx7Tm-26" value="" style="endArrow=classic;html=1;" edge="1" parent="a0_NJ3MqM7fps5Hap8y8-1">
          <mxGeometry width="50" height="50" relative="1" as="geometry">
            <mxPoint x="-686.5" y="300" as="sourcePoint" />
            <mxPoint x="-543.5" y="300" as="targetPoint" />
          </mxGeometry>
        </mxCell>
        <mxCell id="NXuTi8ThN2YFOEaSx7Tm-27" value="clicks Off button" style="text;html=1;align=center;verticalAlign=middle;resizable=0;points=[];autosize=1;strokeColor=none;" vertex="1" parent="a0_NJ3MqM7fps5Hap8y8-1">
          <mxGeometry x="-670" y="270" width="100" height="20" as="geometry" />
        </mxCell>
        <mxCell id="NXuTi8ThN2YFOEaSx7Tm-28" value="" style="endArrow=none;html=1;entryX=-0.02;entryY=0.222;entryDx=0;entryDy=0;entryPerimeter=0;startArrow=classic;startFill=1;endFill=0;dashed=1;" edge="1" parent="a0_NJ3MqM7fps5Hap8y8-1">
          <mxGeometry width="50" height="50" relative="1" as="geometry">
            <mxPoint x="-535" y="234.51999999999998" as="sourcePoint" />
            <mxPoint x="-395.2" y="234.5" as="targetPoint" />
          </mxGeometry>
        </mxCell>
        <mxCell id="NXuTi8ThN2YFOEaSx7Tm-29" value="send notification" style="text;html=1;align=center;verticalAlign=middle;resizable=0;points=[];autosize=1;strokeColor=none;" vertex="1" parent="a0_NJ3MqM7fps5Hap8y8-1">
          <mxGeometry x="-515" y="210" width="100" height="20" as="geometry" />
        </mxCell>
        <mxCell id="NXuTi8ThN2YFOEaSx7Tm-30" value=": Device" style="rounded=0;whiteSpace=wrap;html=1;" vertex="1" parent="a0_NJ3MqM7fps5Hap8y8-1">
          <mxGeometry x="-590" y="120" width="100" height="40" as="geometry" />
        </mxCell>
        <mxCell id="NXuTi8ThN2YFOEaSx7Tm-31" value="" style="edgeStyle=orthogonalEdgeStyle;rounded=0;orthogonalLoop=1;jettySize=auto;html=1;endArrow=none;endFill=0;dashed=1;" edge="1" parent="a0_NJ3MqM7fps5Hap8y8-1" source="NXuTi8ThN2YFOEaSx7Tm-30">
          <mxGeometry relative="1" as="geometry">
            <mxPoint x="-540" y="410" as="targetPoint" />
            <mxPoint x="-540" y="160" as="sourcePoint" />
            <Array as="points">
              <mxPoint x="-540" y="250" />
              <mxPoint x="-540" y="250" />
            </Array>
          </mxGeometry>
        </mxCell>
        <mxCell id="NXuTi8ThN2YFOEaSx7Tm-32" value="" style="endArrow=classic;html=1;" edge="1" parent="a0_NJ3MqM7fps5Hap8y8-1">
          <mxGeometry width="50" height="50" relative="1" as="geometry">
            <mxPoint x="-535" y="319" as="sourcePoint" />
            <mxPoint x="-394" y="319" as="targetPoint" />
          </mxGeometry>
        </mxCell>
        <mxCell id="NXuTi8ThN2YFOEaSx7Tm-35" value="" style="html=1;points=[];perimeter=orthogonalPerimeter;fillColor=#FFFFFF;" vertex="1" parent="a0_NJ3MqM7fps5Hap8y8-1">
          <mxGeometry x="-545" y="190" width="10" height="190" as="geometry" />
        </mxCell>
        <mxCell id="NXuTi8ThN2YFOEaSx7Tm-36" value="DeleteReminder" style="text;html=1;align=center;verticalAlign=middle;resizable=0;points=[];autosize=1;strokeColor=none;" vertex="1" parent="a0_NJ3MqM7fps5Hap8y8-1">
          <mxGeometry x="-515" y="300" width="100" height="20" as="geometry" />
        </mxCell>
        <mxCell id="NXuTi8ThN2YFOEaSx7Tm-37" value="notify user" style="text;html=1;align=center;verticalAlign=middle;resizable=0;points=[];autosize=1;strokeColor=none;" vertex="1" parent="a0_NJ3MqM7fps5Hap8y8-1">
          <mxGeometry x="-785" y="70" width="70" height="20" as="geometry" />
        </mxCell>
      </root>
    </mxGraphModel>
  </diagram>
</mxfile>
